<mxfile host="app.diagrams.net" modified="2021-02-01T14:10:18.198Z" agent="5.0 (Windows NT 6.1; Win64; x64) AppleWebKit/537.36 (KHTML, like Gecko) Chrome/88.0.4324.104 Safari/537.36" etag="LeHjNVjChxmIsRYs0z32" version="14.2.7" type="github">
  <diagram id="coRnG80lGamwpvs_piL9" name="Page-1">
    <mxGraphModel dx="868" dy="450" grid="1" gridSize="10" guides="1" tooltips="1" connect="1" arrows="1" fold="1" page="1" pageScale="1" pageWidth="827" pageHeight="1169" math="0" shadow="0">
      <root>
        <mxCell id="0" />
        <mxCell id="1" parent="0" />
        <mxCell id="Tpz-C4iuWx3oosP5-Nq5-2" value="" style="verticalLabelPosition=bottom;verticalAlign=top;html=1;shadow=0;dashed=0;strokeWidth=1;shape=mxgraph.android.phone2;strokeColor=#c0c0c0;" vertex="1" parent="1">
          <mxGeometry x="276.25" y="60" width="223.75" height="400" as="geometry" />
        </mxCell>
        <mxCell id="Tpz-C4iuWx3oosP5-Nq5-3" value="" style="strokeWidth=1;html=1;shadow=0;dashed=0;shape=mxgraph.android.rrect;rSize=0;strokeColor=#eeeeee;fillColor=#ffffff;gradientColor=none;" vertex="1" parent="1">
          <mxGeometry x="285.63" y="95" width="205" height="330" as="geometry" />
        </mxCell>
        <mxCell id="Tpz-C4iuWx3oosP5-Nq5-4" value="&lt;font style=&quot;font-size: 14px&quot;&gt;Menu&amp;nbsp; 1&lt;br&gt;&lt;/font&gt;&lt;br&gt;&lt;font style=&quot;font-size: 12px&quot;&gt;piadina kebab + patatine + bibita&lt;br&gt;&lt;/font&gt;&lt;br&gt;&lt;font style=&quot;font-size: 12px&quot;&gt;5,50 €&lt;/font&gt;" style="strokeColor=inherit;fillColor=inherit;gradientColor=inherit;strokeWidth=1;html=1;shadow=0;dashed=0;shape=mxgraph.android.rrect;rSize=0;align=left;spacingLeft=10;fontSize=8;fontColor=#333333;" vertex="1" parent="Tpz-C4iuWx3oosP5-Nq5-3">
          <mxGeometry width="205" height="82.5" as="geometry" />
        </mxCell>
        <mxCell id="Tpz-C4iuWx3oosP5-Nq5-5" value="&lt;font&gt;&lt;span style=&quot;font-size: 14px&quot;&gt;Menu 2&lt;br&gt;&lt;/span&gt;&lt;br&gt;&lt;font style=&quot;font-size: 12px&quot;&gt;panino kebab + patatine + bibita&lt;/font&gt;&lt;br&gt;&lt;br&gt;&lt;font style=&quot;font-size: 12px&quot;&gt;5,50€&lt;/font&gt;&lt;br&gt;&lt;/font&gt;" style="strokeColor=inherit;fillColor=inherit;gradientColor=inherit;strokeWidth=1;html=1;shadow=0;dashed=0;shape=mxgraph.android.rrect;rSize=0;align=left;spacingLeft=10;fontSize=8;fontColor=#333333;" vertex="1" parent="Tpz-C4iuWx3oosP5-Nq5-3">
          <mxGeometry y="82.5" width="205" height="82.5" as="geometry" />
        </mxCell>
        <mxCell id="Tpz-C4iuWx3oosP5-Nq5-6" value="&lt;font&gt;&lt;font&gt;&lt;font style=&quot;font-size: 14px&quot;&gt;Menu 3&lt;/font&gt;&lt;br&gt;&lt;br&gt;&lt;span style=&quot;font-size: 12px&quot;&gt;kebab + patatine + insalata+ bibita&lt;/span&gt;&lt;br&gt;&lt;/font&gt;&lt;br&gt;&lt;font style=&quot;font-size: 12px&quot;&gt;5,00€&lt;/font&gt;&lt;br&gt;&lt;/font&gt;" style="strokeColor=inherit;fillColor=inherit;gradientColor=inherit;strokeWidth=1;html=1;shadow=0;dashed=0;shape=mxgraph.android.rrect;rSize=0;align=left;spacingLeft=10;fontSize=8;fontColor=#333333;" vertex="1" parent="Tpz-C4iuWx3oosP5-Nq5-3">
          <mxGeometry y="165" width="205" height="82.5" as="geometry" />
        </mxCell>
        <mxCell id="Tpz-C4iuWx3oosP5-Nq5-7" value="&lt;font&gt;&lt;span style=&quot;font-size: 14px&quot;&gt;Menu 4&lt;/span&gt;&lt;br&gt;&lt;br&gt;&lt;font style=&quot;font-size: 12px&quot;&gt;kebab+riso+insalata+bibita&lt;br&gt;&lt;/font&gt;&lt;br&gt;&lt;font style=&quot;font-size: 12px&quot;&gt;5,00€&lt;/font&gt;&lt;br&gt;&lt;/font&gt;" style="strokeColor=inherit;fillColor=inherit;gradientColor=inherit;strokeWidth=1;html=1;shadow=0;dashed=0;shape=mxgraph.android.rrect;rSize=0;align=left;spacingLeft=10;fontSize=8;fontColor=#333333;" vertex="1" parent="Tpz-C4iuWx3oosP5-Nq5-3">
          <mxGeometry y="247.5" width="205" height="82.5" as="geometry" />
        </mxCell>
        <mxCell id="Tpz-C4iuWx3oosP5-Nq5-8" value="" style="verticalLabelPosition=bottom;verticalAlign=top;html=1;shadow=0;dashed=0;strokeWidth=1;shape=mxgraph.ios.iArrowIcon;fillColor=#8BbEff;fillColor2=#135Ec8;strokeColor=#ffffff;" vertex="1" parent="Tpz-C4iuWx3oosP5-Nq5-3">
          <mxGeometry x="184.37" y="65" width="15" height="15" as="geometry" />
        </mxCell>
        <mxCell id="Tpz-C4iuWx3oosP5-Nq5-9" value="" style="verticalLabelPosition=bottom;verticalAlign=top;html=1;shadow=0;dashed=0;strokeWidth=1;shape=mxgraph.ios.iArrowIcon;fillColor=#8BbEff;fillColor2=#135Ec8;strokeColor=#ffffff;" vertex="1" parent="Tpz-C4iuWx3oosP5-Nq5-3">
          <mxGeometry x="184.37" y="150" width="15" height="15" as="geometry" />
        </mxCell>
        <mxCell id="Tpz-C4iuWx3oosP5-Nq5-10" value="" style="verticalLabelPosition=bottom;verticalAlign=top;html=1;shadow=0;dashed=0;strokeWidth=1;shape=mxgraph.ios.iArrowIcon;fillColor=#8BbEff;fillColor2=#135Ec8;strokeColor=#ffffff;" vertex="1" parent="Tpz-C4iuWx3oosP5-Nq5-3">
          <mxGeometry x="184.37" y="233" width="15" height="15" as="geometry" />
        </mxCell>
        <mxCell id="Tpz-C4iuWx3oosP5-Nq5-11" value="" style="verticalLabelPosition=bottom;verticalAlign=top;html=1;shadow=0;dashed=0;strokeWidth=1;shape=mxgraph.ios.iArrowIcon;fillColor=#8BbEff;fillColor2=#135Ec8;strokeColor=#ffffff;" vertex="1" parent="Tpz-C4iuWx3oosP5-Nq5-3">
          <mxGeometry x="184.37" y="315" width="15" height="15" as="geometry" />
        </mxCell>
      </root>
    </mxGraphModel>
  </diagram>
</mxfile>
